<?xml version="1.0" encoding="UTF-8"?>
<svg version="1.1" xmlns="http://www.w3.org/2000/svg" width="43" height="51">
<path d="M0 0 C14.19 0 28.38 0 43 0 C43 16.83 43 33.66 43 51 C28.81 51 14.62 51 0 51 C0 34.17 0 17.34 0 0 Z " fill="#FFFDFD" transform="translate(0,0)"/>
<path d="M0 0 C2.58695603 1.56857354 4.86950548 3.43728254 7.1875 5.375 C7.81591797 5.88289062 8.44433594 6.39078125 9.09179688 6.9140625 C15.92889721 12.47149165 15.92889721 12.47149165 16.25878906 14.92358398 C16.26104492 15.69001221 16.26330078 16.45644043 16.265625 17.24609375 C16.26949219 18.50196289 16.26949219 18.50196289 16.2734375 19.78320312 C16.26570313 20.65912109 16.25796875 21.53503906 16.25 22.4375 C16.26160156 23.74557617 16.26160156 23.74557617 16.2734375 25.08007812 C16.27085938 25.91861328 16.26828125 26.75714844 16.265625 27.62109375 C16.26336914 28.3886499 16.26111328 29.15620605 16.25878906 29.94702148 C16 32 16 32 14 35 C11.2609515 35.30400756 8.79736367 35.41829599 6.0625 35.375 C5.33353516 35.38660156 4.60457031 35.39820313 3.85351562 35.41015625 C0.85706943 35.39367717 -1.41336304 35.37870029 -3.97265625 33.7265625 C-5.82189511 30.6187162 -5.81116096 27.4764041 -5 24 C-2.5 22 -2.5 22 0 21 C-0.804375 20.566875 -1.60875 20.13375 -2.4375 19.6875 C-5 18 -5 18 -6 15 C-6.598125 15.825 -7.19625 16.65 -7.8125 17.5 C-8.534375 18.325 -9.25625 19.15 -10 20 C-10.99 20 -11.98 20 -13 20 C-13 20.66 -13 21.32 -13 22 C-12.38125 22.12375 -11.7625 22.2475 -11.125 22.375 C-9 23 -9 23 -7 25 C-7.18101172 28.31854817 -7.45023552 30.99748831 -9.0625 33.9375 C-12.36385818 35.74792223 -15.27884259 35.29532995 -19 35 C-22.27468498 31.72531502 -21.40926896 27.63859469 -21.4375 23.1875 C-21.47037109 22.28451172 -21.50324219 21.38152344 -21.53710938 20.45117188 C-21.573011 16.00916179 -21.56894055 13.74705253 -18.81640625 10.1328125 C-17.88699219 9.42898437 -16.95757812 8.72515625 -16 8 C-15.1028125 7.26136719 -14.205625 6.52273437 -13.28125 5.76171875 C-11.90453125 4.73498047 -11.90453125 4.73498047 -10.5 3.6875 C-9.12328125 2.64142578 -9.12328125 2.64142578 -7.71875 1.57421875 C-4.62295067 -0.21832023 -3.49003687 -0.75870367 0 0 Z " fill="#FF7038" transform="translate(24,8)"/>
<path d="M0 0 C2 1 2 1 2.875 2.9375 C4.22909764 5.42001234 5.42178493 5.96871397 8 7 C5 9 5 9 3 10 C2.59270772 12.32156597 2.25561323 14.6568787 2 17 C1.01 17.33 0.02 17.66 -1 18 C-0.8453125 16.3603125 -0.8453125 16.3603125 -0.6875 14.6875 C-0.790625 13.470625 -0.89375 12.25375 -1 11 C-3.40858714 9.1375562 -3.40858714 9.1375562 -6 8 C-6 7.34 -6 6.68 -6 6 C-5.195625 5.525625 -4.39125 5.05125 -3.5625 4.5625 C-0.7081924 3.20016328 -0.7081924 3.20016328 0 0 Z " fill="#FFF1EC" transform="translate(17,22)"/>
<path d="M0 0 C0.99 0.66 1.98 1.32 3 2 C2.34 3.65 1.68 5.3 1 7 C-1 5.625 -1 5.625 -3 4 C-3 3.34 -3 2.68 -3 2 C-2.01 2 -1.02 2 0 2 C0 1.34 0 0.68 0 0 Z " fill="#FFE0D4" transform="translate(28,19)"/>
</svg>
